<?xml version="1.0" encoding="utf-8"?>
<!-- Generator: Adobe Illustrator 23.1.0, SVG Export Plug-In . SVG Version: 6.00 Build 0)  -->
<svg version="1.1" xmlns="http://www.w3.org/2000/svg" xmlns:xlink="http://www.w3.org/1999/xlink" x="0px" y="0px"
	 viewBox="0 0 500 500" style="enable-background:new 0 0 500 500;" xml:space="preserve">
<style type="text/css">
	.st0{display:none;}
	.st1{fill:#FFFFFF;stroke:#000000;stroke-width:20;stroke-miterlimit:10;}
</style>
<g id="Capa_1" class="st0">
	
		<image style="display:inline;overflow:visible;" width="164" height="154" xlink:href="B651646F.jpg"  transform="matrix(1 0 0 1 221.3214 154.9643)">
	</image>
</g>
<g id="Capa_2">
	<path class="st1" d="M449.3,170.9c0-17.5-14.2-31.6-31.6-31.6c-17.5,0-31.6,14.2-31.6,31.6v80.5h-11.7V100.8
		c0-17.5-14.2-31.6-31.6-31.6c-17.5,0-31.6,14.2-31.6,31.6v150.6h-8.5V60.8c0-18.2-14.8-33-33-33s-33,14.8-33,33v190.6H229V96.1
		c0-19-15.4-34.4-34.4-34.4s-34.4,15.4-34.4,34.4v223.6c0,2.9,0.4,5.7,1.1,8.4l-44.8-62.7c-11.6-16.3-34.2-20-50.5-8.4
		c-16.3,11.6-20,34.2-8.4,50.5l45.1,63.2c1.7,2.4,3.7,4.5,5.8,6.4c0.4,1.3,0.9,2.6,1.8,3.7l60.5,80c2.5,3.3,5.8,6,9.6,7.8l2.7,1.3
		c3.4,1.6,7.2,2.5,11,2.5h201c6.9,0,13.5-2.7,18.5-7.4l4.6-4.4c4-3.8,6.7-8.8,7.8-14.2l23.1-117.4c0.1-0.7,0.2-1.4,0.2-2.1v-63.5
		c0-0.6-0.1-1.2-0.2-1.8c0.1-1.2,0.2-2.4,0.2-3.6V170.9z"/>
</g>
</svg>
