<?xml version="1.0" encoding="utf-8"?>
<!-- Generator: Adobe Illustrator 23.1.0, SVG Export Plug-In . SVG Version: 6.00 Build 0)  -->
<svg version="1.1" xmlns="http://www.w3.org/2000/svg" xmlns:xlink="http://www.w3.org/1999/xlink" x="0px" y="0px"
	 viewBox="0 0 500 500" style="enable-background:new 0 0 500 500;" xml:space="preserve">
<style type="text/css">
	.st0{display:none;}
	.st1{fill:#FFFFFF;stroke:#000000;stroke-width:20;stroke-miterlimit:10;}
</style>
<g id="Capa_1" class="st0">
	
		<image style="display:inline;overflow:visible;" width="139" height="137" xlink:href="B4E11972.jpg"  transform="matrix(1.1376 0 0 1.1376 186.0085 120.8952)">
	</image>
</g>
<g id="Capa_2">
	<path class="st1" d="M436.9,84.9c-20.7,0-37.6,16.8-37.6,37.6v18.1l-14.3-0.2V91c0-21.4-17.3-38.7-38.7-38.7
		c-21.4,0-38.7,17.3-38.7,38.7v48.2l-11.9-0.2V94.1c0-25.3-20.5-45.9-45.9-45.9S204,68.7,204,94.1v43.5l-9.3-0.1v-36.2
		c0-22.6-18.3-40.9-40.9-40.9s-40.9,18.3-40.9,40.9v150l-15.3,0.2l-3.5-58c-1.2-20.7-19-36.5-39.7-35.3c-20.7,1.2-36.5,19-35.3,39.7
		l4.2,71.1c0.3,4.4,1.3,8.6,2.9,12.4c0.4,2.3,1.5,4.5,3.2,6.1l0.1,0.1c3.2,4.7,7.3,8.7,12.2,11.6l113.8,107.8c2.2,2.1,3.4,5,3.4,8
		V437c0,3.5,1.7,6.9,4.6,8.9l6.8,4.9c1.9,1.3,4.1,2.1,6.4,2.1h235c2.8,0,5.5-1.1,7.6-3l7.7-7.3c2.2-2.1,3.4-4.9,3.4-7.9v-40.7
		c0-1.2,0.2-2.5,0.6-3.7l42.4-119.8c0.7-1.8,1-3.8,1-5.8v-10V152.6v-30.1C474.5,101.7,457.7,84.9,436.9,84.9z"/>
</g>
</svg>
