<?xml version="1.0" encoding="utf-8"?>
<!-- Generator: Adobe Illustrator 23.1.0, SVG Export Plug-In . SVG Version: 6.00 Build 0)  -->
<svg version="1.1" xmlns="http://www.w3.org/2000/svg" xmlns:xlink="http://www.w3.org/1999/xlink" x="0px" y="0px"
	 viewBox="0 0 500 500" style="enable-background:new 0 0 500 500;" xml:space="preserve">
<style type="text/css">
	.st0{display:none;}
	.st1{fill:#FFFFFF;stroke:#000000;stroke-width:20;stroke-miterlimit:10;}
	.st2{fill:#FFFFFF;stroke:#000000;stroke-width:20;stroke-linecap:round;stroke-miterlimit:10;}
</style>
<g id="Capa_1" class="st0">
	
		<image style="display:inline;overflow:visible;" width="153" height="143" xlink:href="9D970C4A.jpg"  transform="matrix(1 0 0 1 286.4464 146.8036)">
	</image>
</g>
<g id="Capa_2">
	<path class="st1" d="M418.7,144.8H296.1c0,0,0,0,0,0l-20.4-8.4c0,0,0,0,0,0c-1.2-0.7-2.5-1.3-3.8-1.8L125.3,75
		c-18.6-7.6-39.8,1.4-47.3,20c-7.6,18.6,1.4,39.8,20,47.3l145.5,59.1c0,0,0,0,0,0l0.1,13.9c0,0,0,0,0,0H68.6
		c-20.4,0-37.5,16.7-37.1,37.1C32,272.2,48.1,288,67.9,288h181.9c3.3,0,6.5-0.5,9.5-1.3c0,0,0,0,0,0l26.8,67.2c0,0,0,0,0,0
		l-20.5,53.1c-3.6,9.3,3,19.4,13,19.8l38.5,1.6c8.9,0.4,17.7-0.6,26.3-2.9l83.8-22.2c10.2-2.7,19-9.3,24.5-18.3l0,0
		c3.9-6.4,6-13.8,6-21.3V184.3c0-9.6-3.5-19-9.9-26.2l0,0C440.5,149.6,429.9,144.8,418.7,144.8z"/>
	<path class="st1" d="M348.3,307.2l-132,60c-16.2,7.4-35.3,0.2-42.6-16l0,0c-7.4-16.2-0.2-35.3,16-42.6l132-60
		c16.2-7.4,35.3-0.2,42.6,16l0,0C371.6,280.8,364.5,299.8,348.3,307.2z"/>
	<path class="st1" d="M356,381.7l-100.7,45.8c-16.2,7.4-35.3,0.2-42.6-16l0,0c-7.4-16.2-0.2-35.3,16-42.6l100.7-45.8
		c16.2-7.4,35.3-0.2,42.6,16l0,0C379.3,355.3,372.2,374.4,356,381.7z"/>
	<path class="st2" d="M356.6,222.2v62.6c0,19.5-15.8,35.3-35.3,35.3h0c-19.5,0-35.3-15.8-35.3-35.3v-62.6c0-2.1,0.2-4.1,0.5-6.1"/>
	<polyline class="st1" points="286.1,214 286.1,190.8 330.5,144.8 	"/>
	<line class="st1" x1="286.1" y1="222.2" x2="286.1" y2="214"/>
</g>
</svg>
